<svg width="32" height="32" viewBox="0 0 32 32" fill="none" xmlns="http://www.w3.org/2000/svg">
<path d="M16 2C19.9587 2.104 23.2557 3.47367 25.891 6.109C28.5263 8.74433 29.896 12.0413 30 16C29.896 19.9587 28.5263 23.2557 25.891 25.891C23.2557 28.5263 19.9587 29.896 16 30C12.0413 29.896 8.74433 28.5263 6.109 25.891C3.47367 23.2557 2.104 19.9587 2 16C2.104 12.0413 3.47367 8.74433 6.109 6.109C8.74433 3.47367 12.0413 2.104 16 2ZM16 8C15.458 8 15.01 8.198 14.656 8.594C14.302 8.99 14.1457 9.45867 14.187 10L14.906 18C14.948 18.292 15.0677 18.5263 15.265 18.703C15.4623 18.8797 15.707 18.9683 15.999 18.969C16.291 18.9697 16.5357 18.881 16.733 18.703C16.9303 18.525 17.05 18.2907 17.092 18L17.811 10C17.853 9.458 17.6967 8.98933 17.342 8.594C16.9873 8.19867 16.5393 8.00067 15.998 8H16ZM16 24C16.4587 23.9793 16.839 23.823 17.141 23.531C17.443 23.239 17.594 22.864 17.594 22.406C17.594 21.948 17.443 21.5677 17.141 21.265C16.839 20.9623 16.4587 20.8113 16 20.812C15.5413 20.8127 15.161 20.9637 14.859 21.265C14.557 21.5663 14.406 21.9467 14.406 22.406C14.406 22.8653 14.557 23.2403 14.859 23.531C15.161 23.8217 15.5413 23.978 16 24Z" fill="#F56C6C"/>
</svg>
